PathFileType	4	(X/Y/Z)	C:/Users/beibeiliu/ov580/test_trc\sequence.35_training_dense_left.trc
DataRate	CameraRate	NumFrames	NumMarkers	Units	OrigDataRate	OrigDataStartFrame	OrigNumFrames
120	120	18	19	mm	120	177	283
Frame#	Time	ThumbCMC			ThumbMCP			ThumbIP			ThumbTip			IndexMCP			IndexPIP			IndexTip			MiddleMCP			MiddlePIP			MiddleTip			RingMCP			RingPIP			RingTip			PinkyMCP			PinkyPIP			PinkyTip			BackHand1			BackHand2			BackHand3	
		X0	Y0	Z0	X1	Y1	Z1	X2	Y2	Z2	X3	Y3	Z3	X4	Y4	Z4	X5	Y5	Z5	X6	Y6	Z6	X7	Y7	Z7	X8	Y8	Z8	X9	Y9	Z9	X10	Y10	Z10	X11	Y11	Z11	X12	Y12	Z12	X13	Y13	Z13	X14	Y14	Z14	X15	Y15	Z15	X16	Y16	Z16	X17	Y17	Z17	X18	Y18	Z18	
176	1.46667	-172.733	78.6434	121.887	-152.47	80.6276	98.9383	-141.801	87.3363	81.512	-131.288	92.8956	64.2957	-174.128	128.024	86.4409	-157.87	123.835	61.5281	-144.849	106.321	51.9289	-195.963	132.399	74.7413	-178.816	134.084	52.6077	-162.127	102.43	54.548	-212.331	121.508	71.1499	-197.57	127.121	49.2022	-176.394	104.91	50.3632	-222.431	106.278	69.1252	-210.954	111.666	46.1908	-189.651	100.384	44.52	-222.835	90.2367	105.09	-226.279	73.963	121.066	-203.038	94.6557	128.168	
177	1.475	-170.11	79.9315	125.7	-151.278	82.9254	99.9342	-142.066	89.6395	84.0135	-133.005	98.1493	62.6511	-170.858	132.736	86.7486	-157.717	128.549	64.2386	-141.512	107.158	52.9505	-196.146	131.989	77.9641	-177.348	133.265	51.2986	-164.427	106.174	53.6949	-209.921	125.398	73.9288	-197.75	129.766	51.4463	-175.837	107.564	50.1597	-224.762	101.993	69.1829	-213.175	113.323	47.8893	-188.556	101.165	44.9872	-222.583	94.229	103.546	-227.339	70.986	120.945	-205.929	93.2436	129.241	
178	1.48333	-171.222	82.3893	125.623	-156.94	86.9274	99.512	-139.636	94.9894	82.804	-131.094	99.3169	65.0657	-174.766	132.281	89.217	-160.922	130.821	63.7345	-140.705	110.265	52.4771	-195.13	137.335	75.9395	-176.748	134.76	52.1985	-162.944	107.849	55.2664	-212.207	123.578	73.4357	-198.581	127.936	47.4543	-176.35	110.803	49.5752	-225.901	104.07	65.6498	-213.813	113.967	49.6625	-188.709	104.245	47.2641	-224.288	91.6715	101.604	-225.627	75.8489	121.642	-206.031	95.2206	129.891	
179	1.49167	-173.73	82.6977	126.308	-155.843	86.4429	103.742	-144.36	96.7195	82.5746	-136.044	100.949	66.5338	-176.893	134.522	83.1668	-160.843	134.3	66.6493	-147.819	114.737	51.5543	-198.65	134.381	75.5799	-181.984	137.032	51.1112	-165.631	108.429	52.6223	-217.083	119.048	68.0304	-200.979	128.723	48.4878	-177.952	109.465	47.5516	-226.769	102.297	62.6815	-211.61	112.084	45.894	-189.808	101.429	45.7048	-225.329	88.8041	101.854	-225.067	71.937	121.17	-209.202	93.1721	127.761	
180	1.5	-176.139	85.5319	124.515	-156.309	88.372	103.621	-142.106	100.726	81.2983	-136.543	105.281	61.7323	-183.683	132.617	84.0095	-163.775	131.086	61.4266	-144.479	115.262	52.8232	-199.31	136.105	71.1676	-180.077	134.39	48.3565	-164.325	107.422	53.6286	-218.868	122.299	64.6946	-202.187	129.849	48.2971	-178.998	109.613	45.8287	-224.897	103.521	63.6672	-213.837	111.361	45.1326	-190.525	101.689	44.3911	-224.01	93.0073	102.727	-229.881	75.6764	117.834	-211.052	92.7463	123.847	
181	1.50833	-178.339	86.6036	123.086	-154.074	92.6569	101.261	-142.986	99.8304	85.1243	-135.093	106.59	64.2313	-180.932	136.128	81.5081	-166.369	133.07	63.4912	-143.348	113.653	53.5672	-202.88	133.804	70.8858	-183.451	137.172	49.8935	-165.779	105.664	53.6739	-219.573	117.717	66.6977	-199.892	127.361	45.0238	-181.05	111.535	45.1645	-228.247	97.6273	63.0031	-212.364	111.824	45.8971	-189.894	99.954	44.3893	-225.429	92.1321	102.348	-229.144	71.0677	118.823	-212.982	96.9009	121.59	
182	1.51667	-179.113	84.0846	125.36	-155.441	92.0304	102.058	-142.688	101.114	83.5001	-134.459	105.631	67.377	-183.247	135.287	84.2357	-166.015	134.355	63.8024	-145.63	114.015	52.312	-203.021	134.836	71.4845	-182.485	132.924	46.6856	-168.186	108.949	51.3484	-216.319	123.672	66.9844	-200.933	127.33	45.6044	-179.981	106.51	45.2177	-228.035	101.467	62.3842	-217.712	108.082	42.2903	-191.455	98.0876	44.8897	-226.545	89.7132	100.415	-228.988	71.6939	120.369	-212.054	94.8321	124.097	
183	1.525	-180.205	86.0292	124.036	-155.427	92.1916	102.399	-143.826	101.431	84.9451	-139.713	107.416	64.1907	-184.728	135.3	80.8671	-161.579	133.502	61.3949	-146.024	116.981	53.2917	-206.169	131.901	71.2479	-183.548	133.078	46.1176	-167.835	107.036	54.4092	-218.522	120.53	66.3957	-202.625	125.532	42.8104	-181.602	109.683	45.3165	-228.947	99.1097	62.9917	-214.583	110.361	44.8571	-191.639	102.871	43.2945	-224.849	89.8788	103.879	-231.682	71.5345	118.312	-212.932	93.4501	124.977	
184	1.53333	-178.355	88.8142	122.733	-156.341	92.5362	101.761	-147.361	101.526	83.1154	-139.202	107.223	67.6383	-185.671	134.82	82.4968	-167.181	134.763	63.5277	-151.21	116.945	50.867	-205.609	134.285	67.1626	-185.636	137.336	48.4143	-167.625	110.094	53.325	-220.73	121.912	63.4051	-202.969	126.807	45.0722	-180.977	106.62	45.5978	-229.025	101.552	61.4836	-214.52	111.144	44.0181	-193.148	99.0775	42.5945	-227.261	90.7954	101.731	-228.119	71.0501	118.736	-212.571	96.2205	123.594	
185	1.54167	-178.525	87.0611	122.497	-157.99	93.9621	99.9717	-147.218	104.601	81.3666	-142.18	109.95	63.0242	-185.285	136.538	80.8425	-169.487	135.077	62.1812	-153.032	117.498	50.7292	-205.372	136.522	71.4605	-188.755	135.308	47.7869	-171.067	109.66	53.2394	-220.076	119.251	67.1464	-205.054	129.449	47.0454	-183.185	109.387	47.0018	-227.463	100.243	65.3673	-215.045	109.15	41.9636	-194.068	101.612	44.0643	-227.593	91.0408	102.226	-227.478	74.2287	117.851	-212.012	96.4319	123.853	
186	1.55	-177.587	88.2787	123.681	-158.13	94.5632	99.1562	-145.438	103.514	82.1488	-140.939	109.034	64.4856	-189.471	134.529	83.457	-168.787	134.493	59.2425	-154.545	119.987	50.587	-210.211	131.362	71.1185	-188.201	135.18	47.3983	-172.053	109.424	53.2254	-221.014	123.114	64.9199	-205.797	126.274	43.2815	-184.636	105.529	45.9539	-231.942	100.067	59.3837	-218.444	111.261	43.9896	-192.283	103.196	45.8733	-231.021	85.8362	99.1434	-230.866	72.3858	117.541	-212.515	93.2396	125.738	
187	1.55833	-182.588	87.1672	120.749	-162.658	95.0585	99.1414	-148.457	106.386	81.1796	-141.701	114.556	63.5015	-191.789	136.692	79.9261	-174.612	139.349	62.6602	-153.913	119.746	49.2923	-210.275	135.981	70.1035	-193.441	135.472	45.6546	-174.977	111.77	52.2176	-222.903	122.865	64.9312	-206.414	127.503	45.4327	-187.073	109.739	45.298	-232.959	99.3237	58.7756	-219.085	109.181	40.7061	-194.461	101.412	43.4732	-227.905	90.3235	98.6833	-230.778	68.9182	113.738	-217.631	93.6186	120.356	
188	1.56667	-182.922	90.8402	121.199	-162.021	101.498	98.824	-151.862	113.224	80.9668	-146.678	120.407	61.6583	-197.112	137.577	80.4255	-178.784	141.081	62.156	-158.432	123.527	49.1972	-218.143	129.226	68.8242	-197.638	137.309	46.23	-174.241	112.298	55.6176	-227.39	116.98	60.8451	-208.657	123.027	41.0075	-186.423	106.615	48.5956	-231.77	99.0041	57.1888	-220.492	105.953	39.7013	-196.091	99.3746	40.8466	-234.099	85.6028	94.8448	-229.716	64.3319	116.044	-219.849	93.7933	119.27	
189	1.575	-186.081	94.763	119.653	-170.063	105.657	96.8604	-156.29	118.846	82.6088	-149.151	129.744	63.3456	-205.109	137.214	80.553	-184.812	142.241	59.1571	-162.248	129.396	51.6053	-223.407	127.425	65.7777	-205.416	134.302	41.5037	-179.665	113.191	50.7791	-229.149	114.263	58.1899	-209.175	117.694	36.6019	-185.96	105.243	48.3918	-232.882	91.2794	53.3671	-219.766	102.18	39.4576	-193.372	99.0351	42.82	-231.69	79.5473	97.9076	-228.916	60.6874	115	-219.109	90.8678	118.864	
190	1.58333	-189.872	99.3463	119.264	-173.026	113.763	96.1228	-164.593	127.312	80.1349	-158.168	137.238	64.4967	-214.198	131.755	73.6289	-195.886	136.776	52.9451	-166.751	127.382	50.2979	-229.725	120.615	58.1862	-208.54	131.128	36.8693	-183.672	114.156	46.1323	-232.089	98.8484	51.3563	-214.594	113.181	34.4958	-188.715	102.114	43.3127	-229.317	79.2275	53.1119	-219.15	93.9601	33.9534	-192.323	97.4146	40.4896	-231.707	73.5337	87.2784	-227.132	58.0283	107.775	-222.306	86.7659	117.642	
191	1.59167	-198.487	98.5965	114.38	-181.341	114.294	98.5521	-174.783	127.823	82.0618	-170.556	138.173	61.7591	-220.565	126.586	65.259	-199.5	134.933	47.456	-173.807	125.28	48.5851	-233.975	111.187	51.5101	-216.706	120.693	28.9888	-185.92	112.755	44.5056	-233.846	95.5365	46.7527	-215.204	103.541	28.0206	-191.032	99.3648	40.4762	-226.806	73.0076	48.4012	-219.254	83.3422	28.302	-194.868	93.2667	38.7269	-231.69	66.277	85.1102	-226.175	53.919	105.454	-226.443	79.2984	110.457	
192	1.6	-202.878	99.1495	115.313	-189.135	117.857	95.6578	-184.476	129.275	76.9885	-175.866	142.144	58.7367	-226.014	121.008	56.7627	-206.329	126.577	41.774	-176.116	125.387	51.8198	-234.764	99.9025	46.4276	-217.185	111.307	23.8373	-188.302	110.144	38.8507	-231.029	81.7235	39.8667	-214.612	95.901	22.4758	-191.457	99.8076	40.0967	-221.205	58.928	43.704	-214.577	71.6226	23.1659	-192.19	86.8661	29.8572	-227.081	58.4276	83.8416	-221.954	49.3737	108.141	-228.903	76.0266	106.508	
193	1.60833	-210.279	95.8895	113.676	-195.84	113.319	92.7816	-190.89	128.425	72.6586	-183.128	140.936	58.3055	-228.554	112.596	48.6395	-207.417	123.408	38.0243	-179.678	120.177	48.3307	-233.197	92.777	35.7959	-215.599	103.593	18.0108	-188.099	105.842	36.5914	-226.313	71.1314	33.4022	-211.172	87.8824	18.6947	-190.376	94.272	32.0142	-214.777	54.3967	44.1116	-207.472	63.4374	20.1438	-187.058	83.547	28.8592	-223.909	51.995	76.0149	-221.218	39.9764	101.788	-231.669	71.3036	100.935	
